# xmcd
#
# Track frame offsets:
#	150
#	9835
#	21700
#	49777
#	67435
#	78720
#	94362
#	106555
#	111690
#	117677
#	129475
#	135832
#	142940
#	160375
#	171215
#	181427
#	193602
#	200340
#	208975
#	216745
#	224332
#	232852
#	244050
#	249190
#	265540
#	271057
#	277430
#	283755
#	290057
#	307020
#
# Disc length: 4256 seconds
#
# Revision: 0
# Processed by: cddbd v1.4PL0 Copyright (c) Steve Scherf et al.
# Submitted via: dBpowerAMP V4.0
#
DISCID=e3109e1e
DTITLE=Clooney, Rosemary - Memories Of You
DYEAR=1900
DGENRE=
TTITLE0=From This Moment On
TTITLE1=Tenderly
TTITLE2=It's Delovely
TTITLE3=Love, You Didn't Do Right By Me
TTITLE4=This Ole House
TTITLE5=You Make Me Feel So Young
TTITLE6=Danny Boy
TTITLE7=Come On-A My House
TTITLE8=Botch-A-Me (Ba-Ba-Baciami-Piccina)
TTITLE9=Mambo Italiano
TTITLE10=Where Will The Dimple Be
TTITLE11=Close Your Eyes (Brahms' Lullaby
TTITLE12=Learnin' The Blues (without applause)
TTITLE13=Ebb Tide (without applause)
TTITLE14=Go On By
TTITLE15=Cherry Pink
TTITLE16=Haven't Got A Worry
TTITLE17=I Do, I Do, I Do
TTITLE18=Don't Care
TTITLE19=Lovely Weather For Ducks
TTITLE20=Reach For A Star
TTITLE21=I Should Have Told You Long Ago
TTITLE22=It's Been A Long, Long Time
TTITLE23=Boy Wanted
TTITLE24=Sweet Leilani (break up with 'Happy Birthday')
TTITLE25=Happy Birthday, Dear Dad
TTITLE26=Happy Birthday, Dear Wife
TTITLE27=Happy Birthday, Dear Daughter
TTITLE28=Music To Shave By (with Louis Armstrong, Bing Crosby and the Hi Lo's)
TTITLE29=I Get A Kick Out Of You
EXTD=
EXTT0=
EXTT1=
EXTT2=
EXTT3=
EXTT4=
EXTT5=
EXTT6=
EXTT7=
EXTT8=
EXTT9=
EXTT10=
EXTT11=
EXTT12=
EXTT13=
EXTT14=
EXTT15=
EXTT16=
EXTT17=
EXTT18=
EXTT19=
EXTT20=
EXTT21=
EXTT22=
EXTT23=
EXTT24=
EXTT25=
EXTT26=
EXTT27=
EXTT28=
EXTT29=
PLAYORDER=
